<svg width="current" height="current" viewBox="0 0 20 20" fill="none" xmlns="http://www.w3.org/2000/svg">
<path d="M14.3335 5.66589H16.0669C16.5266 5.66589 16.9675 5.8485 17.2925 6.17357C17.6176 6.49863 17.8002 6.93951 17.8002 7.39922V12.5992C17.8002 13.0589 17.6176 13.4998 17.2925 13.8249C16.9675 14.1499 16.5266 14.3326 16.0669 14.3326H14.3335V17.7992L10.8669 14.3326H7.4002C7.17255 14.3328 6.94709 14.288 6.73679 14.2009C6.52649 14.1137 6.33548 13.9859 6.17473 13.8247M6.17473 13.8247L9.13353 10.8659H12.6002C13.0599 10.8659 13.5008 10.6833 13.8258 10.3582C14.1509 10.0331 14.3335 9.59226 14.3335 9.13255V3.93255C14.3335 3.47284 14.1509 3.03196 13.8258 2.7069C13.5008 2.38184 13.0599 2.19922 12.6002 2.19922H3.93353C3.47382 2.19922 3.03294 2.38184 2.70788 2.7069C2.38281 3.03196 2.2002 3.47284 2.2002 3.93255V9.13255C2.2002 9.59226 2.38281 10.0331 2.70788 10.3582C3.03294 10.6833 3.47382 10.8659 3.93353 10.8659H5.66686V14.3326L6.17473 13.8247Z" stroke="#111111" stroke-width="1.4" stroke-linecap="round" stroke-linejoin="round"/>
</svg>
