<svg width="current" height="current" viewBox="0 0 32 32" fill="none" xmlns="http://www.w3.org/2000/svg">
<path d="M0 5C0 2.23858 2.23858 0 5 0H27C29.7614 0 32 2.23858 32 5V27C32 29.7614 29.7614 32 27 32H5C2.23858 32 0 29.7614 0 27V5Z" fill="#FCE7D9"/>
<path d="M9.69104 14.1518C10.2294 14.1518 10.719 14.023 11.1606 13.7646C11.6014 13.5014 11.9534 13.1462 12.2166 12.699C12.4805 12.2516 12.6175 11.7408 12.6126 11.2214C12.6126 10.6886 12.4806 10.2014 12.2174 9.7606C11.9596 9.32487 11.5962 8.96114 11.1606 8.703C10.7164 8.43866 10.2079 8.30191 9.69104 8.3078C9.15184 8.3078 8.66224 8.4398 8.22144 8.703C7.77984 8.967 7.42784 9.319 7.16384 9.7606C6.90057 10.202 6.7641 10.7075 6.76944 11.2214C6.76944 11.7598 6.90144 12.2526 7.16464 12.699C7.42864 13.1462 7.78064 13.5014 8.22224 13.7646C8.66819 14.0239 9.17521 14.1577 9.69104 14.1518ZM14.0222 12.0374C14.2222 12.0374 14.3974 11.9654 14.5462 11.823C14.618 11.7542 14.6749 11.6714 14.7134 11.5798C14.7519 11.4881 14.7713 11.3896 14.7702 11.2902C14.7713 11.1933 14.7518 11.0972 14.7132 11.0083C14.6746 10.9194 14.6177 10.8396 14.5462 10.7742C14.4788 10.7031 14.3975 10.6465 14.3074 10.608C14.2173 10.5694 14.1202 10.5498 14.0222 10.5502C13.8214 10.5502 13.6462 10.6254 13.4974 10.7742C13.4261 10.8397 13.3693 10.9195 13.3309 11.0084C13.2924 11.0973 13.2731 11.1933 13.2742 11.2902C13.2742 11.4966 13.3462 11.6742 13.4894 11.823C13.5596 11.8923 13.6428 11.947 13.7343 11.9838C13.8257 12.0206 13.9236 12.0388 14.0222 12.0374ZM16.179 12.0374C16.3854 12.0374 16.5598 11.9654 16.703 11.823C16.7748 11.7542 16.8317 11.6714 16.8702 11.5798C16.9087 11.4881 16.9281 11.3896 16.927 11.2902C16.9281 11.1933 16.9086 11.0972 16.87 11.0083C16.8314 10.9194 16.7745 10.8396 16.703 10.7742C16.6363 10.7022 16.5552 10.645 16.4649 10.6064C16.3746 10.5678 16.2772 10.5487 16.179 10.5502C15.979 10.5502 15.803 10.6254 15.655 10.7742C15.5858 10.8409 15.531 10.9211 15.494 11.0099C15.4569 11.0986 15.4385 11.194 15.4398 11.2902C15.4377 11.3883 15.4553 11.4858 15.4915 11.5769C15.5278 11.6681 15.5821 11.751 15.651 11.8208C15.72 11.8905 15.8022 11.9457 15.8929 11.9831C15.9837 12.0204 16.0809 12.0384 16.179 12.0374ZM18.3614 12.0374C18.5678 12.0374 18.743 11.9654 18.8862 11.823C18.9578 11.7541 19.0146 11.6713 19.0529 11.5797C19.0913 11.4881 19.1106 11.3895 19.1094 11.2902C19.1105 11.1933 19.091 11.0972 19.0524 11.0083C19.0138 10.9194 18.9569 10.8396 18.8854 10.7742C18.818 10.7031 18.7367 10.6465 18.6466 10.608C18.5565 10.5694 18.4594 10.5498 18.3614 10.5502C18.2633 10.5487 18.1659 10.5678 18.0756 10.6064C17.9853 10.645 17.9042 10.7022 17.8374 10.7742C17.7684 10.841 17.7137 10.9213 17.6769 11.01C17.64 11.0988 17.6217 11.1941 17.623 11.2902C17.623 11.4966 17.695 11.6742 17.8374 11.823C17.9055 11.8926 17.9871 11.9475 18.0773 11.9844C18.1674 12.0213 18.2641 12.0393 18.3614 12.0374ZM22.6934 14.1518C23.2318 14.1518 23.7214 14.023 24.1622 13.7646C24.6032 13.507 24.9702 13.1399 25.2278 12.699C25.4917 12.2516 25.6287 11.7408 25.6238 11.2214C25.6238 10.6886 25.4918 10.2014 25.2286 9.7606C24.9687 9.32301 24.6014 8.95899 24.1614 8.703C23.7172 8.43866 23.2087 8.30191 22.6918 8.3078C22.1754 8.30353 21.6676 8.44017 21.223 8.703C20.7814 8.967 20.4294 9.319 20.1654 9.7606C19.9072 10.2038 19.7737 10.7085 19.779 11.2214C19.779 11.7598 19.9078 12.2526 20.1654 12.699C20.4294 13.1462 20.7814 13.5014 21.223 13.7646C21.6694 14.023 22.159 14.1518 22.6926 14.1518H22.6934ZM20.459 15.939C20.5571 15.9406 20.6545 15.9216 20.7448 15.8832C20.8351 15.8447 20.9162 15.7877 20.983 15.7158C21.0542 15.6484 21.1108 15.5671 21.1493 15.477C21.1878 15.3869 21.2075 15.2898 21.207 15.1918C21.2087 15.0935 21.1896 14.9959 21.151 14.9055C21.1124 14.8151 21.0552 14.7338 20.983 14.667C20.9162 14.5951 20.8351 14.5381 20.7448 14.4996C20.6545 14.4612 20.5571 14.4421 20.459 14.4438C20.3621 14.4428 20.2661 14.4623 20.1772 14.5009C20.0883 14.5395 20.0085 14.5963 19.943 14.6678C19.8734 14.7359 19.8185 14.8175 19.7816 14.9076C19.7448 14.9977 19.7267 15.0945 19.7286 15.1918C19.7286 15.3918 19.7998 15.567 19.943 15.7158C20.087 15.8646 20.2582 15.939 20.459 15.939ZM18.835 17.727C18.9332 17.7285 19.0306 17.7093 19.1209 17.6707C19.2111 17.6321 19.2923 17.575 19.359 17.503C19.4306 17.4341 19.4874 17.3513 19.5257 17.2597C19.5641 17.1681 19.5834 17.0695 19.5822 16.9702C19.5831 16.8734 19.5637 16.7775 19.5251 16.6888C19.4865 16.6 19.4296 16.5203 19.3582 16.455C19.2915 16.383 19.2103 16.3259 19.1201 16.2873C19.0298 16.2487 18.9324 16.2295 18.8342 16.231C18.7376 16.2312 18.6421 16.2512 18.5535 16.2897C18.4649 16.3282 18.3851 16.3845 18.319 16.455C18.2476 16.5203 18.1908 16.6 18.1522 16.6888C18.1136 16.7775 18.0941 16.8734 18.095 16.9702C18.095 17.1766 18.167 17.3542 18.3102 17.503C18.459 17.6526 18.635 17.727 18.835 17.727ZM16.1958 23.7166C16.735 23.7166 17.2246 23.5846 17.6654 23.3214C18.1038 23.0666 18.4682 22.7021 18.723 22.2638C18.9859 21.8192 19.1225 21.3114 19.1182 20.795C19.1182 20.2558 18.9862 19.7662 18.723 19.3254C18.4682 18.8871 18.1038 18.5226 17.6654 18.2678C17.2212 18.0035 16.7127 17.8667 16.1958 17.8726C15.6574 17.8726 15.1678 18.0046 14.727 18.2678C14.2887 18.5226 13.9242 18.8871 13.6694 19.3254C13.4051 19.7696 13.2684 20.2781 13.2742 20.795C13.2742 21.3278 13.4062 21.8174 13.6694 22.2638C13.9334 22.7118 14.2854 23.0638 14.727 23.3214C15.1678 23.5854 15.6574 23.7166 16.1958 23.7166ZM13.5406 17.727C13.6388 17.7285 13.7362 17.7094 13.8265 17.6708C13.9168 17.6322 13.9979 17.575 14.0646 17.503C14.1341 17.4329 14.1889 17.3497 14.2259 17.2583C14.2628 17.1668 14.2812 17.0689 14.2798 16.9702C14.2798 16.7702 14.2078 16.5982 14.0646 16.455C13.9979 16.383 13.9168 16.3258 13.8265 16.2872C13.7362 16.2486 13.6388 16.2295 13.5406 16.231C13.4412 16.23 13.3427 16.2493 13.2511 16.2879C13.1594 16.3264 13.0766 16.3833 13.0078 16.455C12.9388 16.5217 12.8842 16.6018 12.8473 16.6904C12.8105 16.779 12.7921 16.8742 12.7934 16.9702C12.7934 17.1766 12.8654 17.3542 13.0078 17.503C13.0766 17.5747 13.1594 17.6316 13.2511 17.6701C13.3427 17.7087 13.4412 17.728 13.5406 17.727ZM11.9166 15.939C12.1166 15.939 12.2886 15.8646 12.4318 15.7158C12.503 15.6484 12.5596 15.5671 12.5981 15.477C12.6366 15.3869 12.6563 15.2898 12.6558 15.1918C12.6575 15.0935 12.6384 14.9959 12.5998 14.9055C12.5612 14.8151 12.504 14.7338 12.4318 14.667C12.3664 14.5957 12.2867 14.539 12.198 14.5006C12.1092 14.4621 12.0134 14.4428 11.9166 14.4438C11.7166 14.4438 11.5406 14.5182 11.3926 14.6678C11.3206 14.7345 11.2634 14.8157 11.2248 14.9059C11.1862 14.9962 11.1671 15.0936 11.1686 15.1918C11.1686 15.3918 11.2406 15.567 11.3838 15.7158C11.4526 15.7875 11.5354 15.8444 11.6271 15.8829C11.7187 15.9215 11.8172 15.94 11.9166 15.939Z" fill="#F8792A"/>
</svg>
