<svg width="current" height="current" viewBox="0 0 32 32" fill="none" xmlns="http://www.w3.org/2000/svg">
<g clip-path="url(#clip0_2564_1667)">
<path d="M32.0005 16.0001C32.0005 21.0745 29.6383 25.5972 25.9533 28.5283C23.2215 30.7019 19.7633 32 16.0006 32C12.2378 32 8.77958 30.7019 6.04764 28.5283C2.36284 25.5972 0.000488281 21.0745 0.000488281 16.0001C0.000488281 7.16363 7.16427 0 16.0006 0C24.8369 0 32.0005 7.16363 32.0005 16.0001Z" fill="#E6E9EF"/>
<path opacity="0.7" d="M16.0001 21.1007C19.4344 21.1007 22.2184 18.3167 22.2184 14.8824C22.2184 11.4481 19.4344 8.66406 16.0001 8.66406C12.5658 8.66406 9.78174 11.4481 9.78174 14.8824C9.78174 18.3167 12.5658 21.1007 16.0001 21.1007Z" fill="#007AFF"/>
<path opacity="0.7" d="M25.9531 28.5277C23.2213 30.7014 19.763 31.9995 16.0003 31.9995C12.2375 31.9995 8.7793 30.7014 6.04736 28.5277C8.04785 25.5889 11.7564 23.6152 16.0003 23.6152C20.2442 23.6152 23.953 25.5885 25.9531 28.5277Z" fill="#007AFF"/>
</g>
<defs>
<clipPath id="clip0_2564_1667">
<rect width="32" height="32" fill="white"/>
</clipPath>
</defs>
</svg>
