<svg
  width="current"
  height="current"
  viewBox="0 0 20 20"
  fill="none"
  xmlns="http://www.w3.org/2000/svg"
>
  <path
    d="M7.66612 17.2131V14.6951C7.6661 14.0547 8.18823 13.5343 8.83513 13.53H11.2048C11.8547 13.53 12.3817 14.0517 12.3817 14.6951V17.2209C12.3815 17.7647 12.8199 18.2091 13.369 18.2218H14.9488C16.5236 18.2218 17.8002 16.958 17.8002 15.3989V8.23606C17.7918 7.62272 17.5009 7.04677 17.0103 6.67211L11.6076 2.36345C10.6611 1.61323 9.31561 1.61323 8.36911 2.36345L2.99007 6.67993C2.49763 7.05307 2.20626 7.62998 2.2002 8.24388V15.3989C2.2002 16.958 3.47683 18.2218 5.05164 18.2218H6.63139C7.19413 18.2218 7.65032 17.7702 7.65032 17.2131"
    stroke="#111111"
    stroke-width="1.5"
    stroke-linecap="round"
    stroke-linejoin="round"
  />
</svg>
